<mxfile host="app.diagrams.net" modified="2023-02-15T13:37:44.520Z" agent="5.0 (Windows NT 10.0; Win64; x64) AppleWebKit/537.36 (KHTML, like Gecko) Chrome/110.0.0.0 Safari/537.36 Edg/110.0.1587.41" etag="Cbls6X1bvzbNHA01uo_h" version="20.8.20" type="github">
  <diagram name="第 1 页" id="YULF2hcq6pDHGw12fIRH">
    <mxGraphModel dx="1434" dy="796" grid="1" gridSize="10" guides="1" tooltips="1" connect="1" arrows="1" fold="1" page="1" pageScale="1" pageWidth="827" pageHeight="1169" math="0" shadow="0">
      <root>
        <mxCell id="0" />
        <mxCell id="1" parent="0" />
        <mxCell id="iK46SkUQ0UgnzPuN8Iwd-2" value="" style="whiteSpace=wrap;html=1;align=center;dashed=1;" vertex="1" parent="1">
          <mxGeometry x="150" y="210" width="270" height="70" as="geometry" />
        </mxCell>
        <mxCell id="iK46SkUQ0UgnzPuN8Iwd-4" value="" style="whiteSpace=wrap;html=1;align=center;dashed=1;" vertex="1" parent="1">
          <mxGeometry x="150" y="290" width="270" height="70" as="geometry" />
        </mxCell>
        <mxCell id="iK46SkUQ0UgnzPuN8Iwd-5" value="" style="whiteSpace=wrap;html=1;align=center;dashed=1;" vertex="1" parent="1">
          <mxGeometry x="150" y="370" width="270" height="70" as="geometry" />
        </mxCell>
        <mxCell id="iK46SkUQ0UgnzPuN8Iwd-6" value="执行前" style="text;html=1;strokeColor=none;fillColor=none;align=center;verticalAlign=middle;whiteSpace=wrap;rounded=0;" vertex="1" parent="1">
          <mxGeometry x="150" y="230" width="60" height="30" as="geometry" />
        </mxCell>
        <mxCell id="iK46SkUQ0UgnzPuN8Iwd-7" value="执行过程中" style="text;html=1;strokeColor=none;fillColor=none;align=center;verticalAlign=middle;whiteSpace=wrap;rounded=0;" vertex="1" parent="1">
          <mxGeometry x="150" y="310" width="70" height="30" as="geometry" />
        </mxCell>
        <mxCell id="iK46SkUQ0UgnzPuN8Iwd-8" value="执行结束" style="text;html=1;strokeColor=none;fillColor=none;align=center;verticalAlign=middle;whiteSpace=wrap;rounded=0;" vertex="1" parent="1">
          <mxGeometry x="150" y="390" width="60" height="30" as="geometry" />
        </mxCell>
        <mxCell id="iK46SkUQ0UgnzPuN8Iwd-13" style="edgeStyle=orthogonalEdgeStyle;rounded=0;orthogonalLoop=1;jettySize=auto;html=1;exitX=0.5;exitY=1;exitDx=0;exitDy=0;entryX=0.5;entryY=0;entryDx=0;entryDy=0;fontSize=14;" edge="1" parent="1" source="iK46SkUQ0UgnzPuN8Iwd-9" target="iK46SkUQ0UgnzPuN8Iwd-11">
          <mxGeometry relative="1" as="geometry" />
        </mxCell>
        <mxCell id="iK46SkUQ0UgnzPuN8Iwd-9" value="输入处理" style="whiteSpace=wrap;html=1;align=center;" vertex="1" parent="1">
          <mxGeometry x="290" y="220" width="100" height="50" as="geometry" />
        </mxCell>
        <mxCell id="iK46SkUQ0UgnzPuN8Iwd-14" style="edgeStyle=orthogonalEdgeStyle;rounded=0;orthogonalLoop=1;jettySize=auto;html=1;exitX=0.5;exitY=1;exitDx=0;exitDy=0;fontSize=14;" edge="1" parent="1" source="iK46SkUQ0UgnzPuN8Iwd-11" target="iK46SkUQ0UgnzPuN8Iwd-12">
          <mxGeometry relative="1" as="geometry" />
        </mxCell>
        <mxCell id="iK46SkUQ0UgnzPuN8Iwd-11" value="&lt;font style=&quot;font-size: 14px;&quot;&gt;执行控制&lt;/font&gt;&lt;br&gt;&lt;font style=&quot;font-size: 11px;&quot;&gt;流程控制&lt;br style=&quot;font-size: 11px;&quot;&gt;数据管理&lt;/font&gt;" style="whiteSpace=wrap;html=1;align=center;" vertex="1" parent="1">
          <mxGeometry x="290" y="300" width="100" height="50" as="geometry" />
        </mxCell>
        <mxCell id="iK46SkUQ0UgnzPuN8Iwd-12" value="结果处理" style="whiteSpace=wrap;html=1;align=center;" vertex="1" parent="1">
          <mxGeometry x="290" y="380" width="100" height="50" as="geometry" />
        </mxCell>
      </root>
    </mxGraphModel>
  </diagram>
</mxfile>
